<mxfile host="Electron" modified="2024-06-04T07:03:37.517Z" agent="Mozilla/5.0 (Windows NT 10.0; Win64; x64) AppleWebKit/537.36 (KHTML, like Gecko) draw.io/22.0.3 Chrome/114.0.5735.289 Electron/25.8.4 Safari/537.36" etag="zjMgHChc6IHakMDge-nM" version="22.0.3" type="device">
  <diagram name="Page-1" id="K-6bbxtXHe_wpfmPoTJH">
    <mxGraphModel dx="954" dy="657" grid="1" gridSize="10" guides="1" tooltips="1" connect="1" arrows="1" fold="1" page="1" pageScale="1" pageWidth="827" pageHeight="1169" math="0" shadow="0">
      <root>
        <mxCell id="0" />
        <mxCell id="1" parent="0" />
        <mxCell id="uFPO5G4s5H7xllB8uH97-5" value="N" style="edgeStyle=orthogonalEdgeStyle;rounded=0;orthogonalLoop=1;jettySize=auto;html=1;" parent="1" source="uFPO5G4s5H7xllB8uH97-3" target="uFPO5G4s5H7xllB8uH97-22" edge="1">
          <mxGeometry relative="1" as="geometry">
            <mxPoint x="210" y="390" as="targetPoint" />
          </mxGeometry>
        </mxCell>
        <mxCell id="uFPO5G4s5H7xllB8uH97-7" value="Y" style="edgeStyle=orthogonalEdgeStyle;rounded=0;orthogonalLoop=1;jettySize=auto;html=1;" parent="1" source="uFPO5G4s5H7xllB8uH97-3" target="uFPO5G4s5H7xllB8uH97-6" edge="1">
          <mxGeometry relative="1" as="geometry" />
        </mxCell>
        <mxCell id="uFPO5G4s5H7xllB8uH97-3" value="有无数据" style="rhombus;whiteSpace=wrap;html=1;" parent="1" vertex="1">
          <mxGeometry x="170" y="160" width="80" height="80" as="geometry" />
        </mxCell>
        <mxCell id="uFPO5G4s5H7xllB8uH97-15" style="edgeStyle=orthogonalEdgeStyle;rounded=0;orthogonalLoop=1;jettySize=auto;html=1;entryX=0.5;entryY=0;entryDx=0;entryDy=0;exitX=0.5;exitY=1;exitDx=0;exitDy=0;" parent="1" source="uFPO5G4s5H7xllB8uH97-22" target="uFPO5G4s5H7xllB8uH97-14" edge="1">
          <mxGeometry relative="1" as="geometry">
            <mxPoint x="240" y="420" as="sourcePoint" />
            <mxPoint x="374" y="495" as="targetPoint" />
            <Array as="points">
              <mxPoint x="210" y="500" />
              <mxPoint x="374" y="500" />
            </Array>
          </mxGeometry>
        </mxCell>
        <mxCell id="uFPO5G4s5H7xllB8uH97-18" value="Y" style="edgeStyle=orthogonalEdgeStyle;rounded=0;orthogonalLoop=1;jettySize=auto;html=1;entryX=0.5;entryY=0;entryDx=0;entryDy=0;" parent="1" source="uFPO5G4s5H7xllB8uH97-6" target="uFPO5G4s5H7xllB8uH97-14" edge="1">
          <mxGeometry relative="1" as="geometry">
            <Array as="points">
              <mxPoint x="520" y="290" />
              <mxPoint x="520" y="500" />
              <mxPoint x="374" y="500" />
            </Array>
          </mxGeometry>
        </mxCell>
        <mxCell id="uFPO5G4s5H7xllB8uH97-21" style="edgeStyle=orthogonalEdgeStyle;rounded=0;orthogonalLoop=1;jettySize=auto;html=1;entryX=0.5;entryY=0;entryDx=0;entryDy=0;" parent="1" source="uFPO5G4s5H7xllB8uH97-6" target="uFPO5G4s5H7xllB8uH97-20" edge="1">
          <mxGeometry relative="1" as="geometry" />
        </mxCell>
        <mxCell id="uFPO5G4s5H7xllB8uH97-6" value="数据齐全？" style="rhombus;whiteSpace=wrap;html=1;" parent="1" vertex="1">
          <mxGeometry x="334" y="250" width="80" height="80" as="geometry" />
        </mxCell>
        <mxCell id="uFPO5G4s5H7xllB8uH97-16" style="edgeStyle=orthogonalEdgeStyle;rounded=0;orthogonalLoop=1;jettySize=auto;html=1;entryX=0.5;entryY=0;entryDx=0;entryDy=0;exitX=0.5;exitY=1;exitDx=0;exitDy=0;" parent="1" source="uFPO5G4s5H7xllB8uH97-20" target="uFPO5G4s5H7xllB8uH97-14" edge="1">
          <mxGeometry relative="1" as="geometry">
            <mxPoint x="374" y="450" as="sourcePoint" />
          </mxGeometry>
        </mxCell>
        <mxCell id="uFPO5G4s5H7xllB8uH97-14" value="文件夹齐全" style="rounded=0;whiteSpace=wrap;html=1;" parent="1" vertex="1">
          <mxGeometry x="314" y="550" width="120" height="60" as="geometry" />
        </mxCell>
        <mxCell id="uFPO5G4s5H7xllB8uH97-20" value="根据人工设置&lt;br&gt;补全文件夹" style="shape=parallelogram;perimeter=parallelogramPerimeter;whiteSpace=wrap;html=1;fixedSize=1;" parent="1" vertex="1">
          <mxGeometry x="314" y="390" width="120" height="60" as="geometry" />
        </mxCell>
        <mxCell id="uFPO5G4s5H7xllB8uH97-22" value="新建整个体系" style="shape=parallelogram;perimeter=parallelogramPerimeter;whiteSpace=wrap;html=1;fixedSize=1;" parent="1" vertex="1">
          <mxGeometry x="150" y="390" width="120" height="60" as="geometry" />
        </mxCell>
        <mxCell id="uFPO5G4s5H7xllB8uH97-23" value="初始化" style="text;html=1;strokeColor=none;fillColor=none;align=center;verticalAlign=middle;whiteSpace=wrap;rounded=0;" parent="1" vertex="1">
          <mxGeometry x="20" y="370" width="60" height="30" as="geometry" />
        </mxCell>
        <mxCell id="uFPO5G4s5H7xllB8uH97-24" value="" style="shape=curlyBracket;whiteSpace=wrap;html=1;rounded=1;labelPosition=left;verticalLabelPosition=middle;align=right;verticalAlign=middle;" parent="1" vertex="1">
          <mxGeometry x="90" y="160" width="20" height="450" as="geometry" />
        </mxCell>
      </root>
    </mxGraphModel>
  </diagram>
</mxfile>
